<svg width="20" height="20" viewBox="0 0 20 20" fill="none" xmlns="http://www.w3.org/2000/svg">
<mask id="path-1-outside-1_4558_5" maskUnits="userSpaceOnUse" x="-0.666016" y="-0.333496" width="21" height="20" fill="black">
<rect fill="white" x="-0.666016" y="-0.333496" width="21" height="20"/>
<path d="M17.9389 14.7868C18.769 13.4642 19.2381 11.9359 19.3214 10.3824C19.4057 8.80696 19.0638 7.22739 18.3651 5.81295C17.6906 4.44723 16.6598 3.27947 15.4216 2.38917C14.1539 1.47732 12.6633 0.932673 11.1153 0.736251C10.7465 0.689582 10.3746 0.667017 10.0028 0.666504C7.79891 0.67112 5.67419 1.4527 3.98496 2.85073C2.37332 4.18465 1.2339 6.09912 0.844957 8.14539C0.643761 9.20596 0.671684 10.2681 0.671684 11.3399V15.593C0.671684 16.5582 0.661858 17.5239 0.671684 18.4885C0.671684 18.5039 0.671684 18.5193 0.671684 18.5347C0.671684 18.8783 0.965469 19.1701 1.31252 19.1701H8.71903C9.20935 19.1701 9.70018 19.1783 10.1905 19.1681C11.7649 19.1347 13.3248 18.7065 14.6866 17.9213C16.0071 17.1603 17.1315 16.0715 17.9384 14.7863L17.9389 14.7868ZM13.7794 16.969C13.6238 17.0515 13.466 17.1295 13.3057 17.2028C13.2628 17.2223 13.2198 17.2418 13.1764 17.2603C13.1702 17.2628 13.1572 17.2685 13.1428 17.2746C13.1195 17.2839 13.0812 17.2998 13.0678 17.3054C13.0181 17.3249 12.9685 17.3444 12.9188 17.3628C12.5842 17.489 12.2413 17.5946 11.8932 17.6782C11.7111 17.7223 11.5275 17.7603 11.3434 17.7921C11.2596 17.8064 11.1753 17.8193 11.091 17.8321C11.0387 17.8388 10.986 17.8449 10.9337 17.85C10.3348 17.9131 9.73173 17.8988 9.13073 17.8988H1.9549V11.8748C1.9549 11.0045 1.91352 10.1199 1.98024 9.25109C1.98955 9.12955 2.00144 9.008 2.01592 8.88697C2.01799 8.87158 2.01955 8.85569 2.02162 8.8403C2.02162 8.8403 2.02162 8.8403 2.02162 8.83979C2.03248 8.76799 2.04334 8.6967 2.05575 8.6249C2.09868 8.3772 2.15196 8.13103 2.21661 7.88794C2.28023 7.64741 2.3547 7.40996 2.43952 7.1761C2.47935 7.06533 2.52177 6.95558 2.56677 6.84685C2.56366 6.85403 2.56055 6.8607 2.55641 6.86891C2.56624 6.84788 2.57503 6.82583 2.58434 6.80429C2.61279 6.73967 2.64176 6.67607 2.67124 6.61248C2.87865 6.16938 3.12432 5.74423 3.40465 5.34267C3.47034 5.2483 3.53809 5.15496 3.60791 5.06368C3.60326 5.06932 3.60015 5.07291 3.59446 5.07957C3.61308 5.05752 3.63067 5.03393 3.64877 5.01136C3.6886 4.96162 3.72895 4.91239 3.76981 4.86315C3.92963 4.67237 4.09824 4.48826 4.27409 4.31133C4.44581 4.13901 4.62527 3.97336 4.81095 3.81591C4.89629 3.7436 4.98319 3.67385 5.07111 3.60462C5.06336 3.60975 5.05767 3.61436 5.04836 3.62103C5.06129 3.6118 5.0737 3.60205 5.08611 3.59282C5.08922 3.59026 5.0918 3.58821 5.0949 3.58564C5.10318 3.57898 5.11352 3.5718 5.1218 3.56616C5.12542 3.56359 5.12852 3.56103 5.13214 3.55846C5.188 3.51692 5.24489 3.47589 5.30179 3.43589C5.70315 3.15331 6.12882 2.90458 6.57259 2.6938C6.67448 2.64508 6.77792 2.59943 6.88188 2.5543C6.9005 2.54661 6.91964 2.53892 6.93826 2.53174C7.00447 2.50558 7.07066 2.47994 7.13738 2.45532C7.3722 2.36865 7.61012 2.29224 7.85166 2.22608C8.09578 2.15941 8.3425 2.103 8.59128 2.05735C8.71075 2.0353 8.8323 2.02248 8.95178 1.9994C8.73765 2.04043 8.94453 2.00094 8.99987 1.99427C9.07332 1.98607 9.14676 1.97837 9.22021 1.97222C9.48037 1.94914 9.74156 1.93837 10.0028 1.93786C10.3726 1.93888 10.7408 1.9635 11.108 2.00761C11.1142 2.00863 11.1205 2.00914 11.1267 2.01017C11.1691 2.01632 11.211 2.02299 11.2529 2.02966C11.3485 2.04504 11.4442 2.06248 11.5394 2.08146C11.7168 2.11633 11.8927 2.15684 12.0675 2.203C12.4187 2.29531 12.7636 2.40968 13.1004 2.54558C13.1086 2.54917 13.1174 2.55225 13.1262 2.55584C13.1536 2.56764 13.181 2.57943 13.2085 2.59123C13.2948 2.62918 13.3802 2.66867 13.465 2.70918C13.6238 2.7856 13.78 2.86663 13.9336 2.95227C14.2444 3.12562 14.5444 3.31794 14.8315 3.5282C14.862 3.55077 14.8925 3.57334 14.9225 3.5959C14.9277 3.6 14.9328 3.60411 14.938 3.6077C15.0068 3.66155 15.074 3.71642 15.1413 3.77232C15.2794 3.88771 15.4139 4.00721 15.5447 4.1308C15.7976 4.36979 16.0361 4.62365 16.2585 4.89136C16.2879 4.92726 16.3174 4.96316 16.3464 4.99906C16.3516 5.00572 16.3655 5.02316 16.3785 5.03957C16.3929 5.05803 16.41 5.0806 16.4172 5.08983C16.4452 5.12676 16.4726 5.16419 16.5 5.20163C16.606 5.34728 16.7074 5.49601 16.8041 5.64781C16.9919 5.94321 17.162 6.2499 17.312 6.5653C17.3498 6.64479 17.3865 6.72428 17.4217 6.8048C17.4227 6.80685 17.4238 6.8089 17.4243 6.81147C17.4424 6.8566 17.461 6.9007 17.4791 6.94583C17.5443 7.11046 17.6042 7.27713 17.6586 7.44535C17.7692 7.78537 17.8577 8.13257 17.9244 8.48387C17.9415 8.57259 17.9565 8.66183 17.971 8.75106C17.9777 8.79312 17.9829 8.83517 17.9896 8.87671C17.9544 8.66388 17.987 8.85876 17.9927 8.90646C18.0144 9.08852 18.0299 9.27161 18.0397 9.45469C18.0599 9.83113 18.0558 10.2091 18.0268 10.585C18.0201 10.6701 18.0123 10.7553 18.003 10.8404C17.9984 10.883 17.9937 10.925 17.9885 10.9676C17.9875 10.9773 17.986 10.9871 17.9849 10.9973C17.957 11.1758 17.927 11.3538 17.8898 11.5307C17.8148 11.8856 17.7165 12.2354 17.597 12.5774C17.5696 12.6554 17.5412 12.7328 17.5117 12.8098C17.4967 12.8482 17.4817 12.8867 17.4667 12.9246C17.4589 12.9436 17.4212 13.0339 17.417 13.0446C17.4134 13.0534 17.4098 13.0611 17.4082 13.0646C17.3891 13.1077 17.37 13.1503 17.3503 13.1929C17.3136 13.2723 17.2753 13.3513 17.236 13.4298C17.0767 13.7472 16.8977 14.055 16.7002 14.3504C16.6035 14.495 16.5021 14.637 16.3971 14.7755C16.3935 14.7806 16.3893 14.7858 16.3852 14.7909C16.3614 14.8206 16.3381 14.8499 16.3143 14.8796C16.2595 14.9468 16.2036 15.0135 16.1467 15.0796C15.9155 15.3468 15.6673 15.6002 15.4051 15.8371C15.2758 15.954 15.1433 16.0669 15.0073 16.1756C14.9794 16.1982 14.9509 16.2202 14.9225 16.2428C14.9158 16.2479 14.9091 16.253 14.9028 16.2576C14.8284 16.3135 14.7529 16.3679 14.6763 16.4212C14.3892 16.6218 14.0898 16.8049 13.78 16.9695L13.7794 16.969Z"/>
</mask>
<path d="M17.9389 14.7868C18.769 13.4642 19.2381 11.9359 19.3214 10.3824C19.4057 8.80696 19.0638 7.22739 18.3651 5.81295C17.6906 4.44723 16.6598 3.27947 15.4216 2.38917C14.1539 1.47732 12.6633 0.932673 11.1153 0.736251C10.7465 0.689582 10.3746 0.667017 10.0028 0.666504C7.79891 0.67112 5.67419 1.4527 3.98496 2.85073C2.37332 4.18465 1.2339 6.09912 0.844957 8.14539C0.643761 9.20596 0.671684 10.2681 0.671684 11.3399V15.593C0.671684 16.5582 0.661858 17.5239 0.671684 18.4885C0.671684 18.5039 0.671684 18.5193 0.671684 18.5347C0.671684 18.8783 0.965469 19.1701 1.31252 19.1701H8.71903C9.20935 19.1701 9.70018 19.1783 10.1905 19.1681C11.7649 19.1347 13.3248 18.7065 14.6866 17.9213C16.0071 17.1603 17.1315 16.0715 17.9384 14.7863L17.9389 14.7868ZM13.7794 16.969C13.6238 17.0515 13.466 17.1295 13.3057 17.2028C13.2628 17.2223 13.2198 17.2418 13.1764 17.2603C13.1702 17.2628 13.1572 17.2685 13.1428 17.2746C13.1195 17.2839 13.0812 17.2998 13.0678 17.3054C13.0181 17.3249 12.9685 17.3444 12.9188 17.3628C12.5842 17.489 12.2413 17.5946 11.8932 17.6782C11.7111 17.7223 11.5275 17.7603 11.3434 17.7921C11.2596 17.8064 11.1753 17.8193 11.091 17.8321C11.0387 17.8388 10.986 17.8449 10.9337 17.85C10.3348 17.9131 9.73173 17.8988 9.13073 17.8988H1.9549V11.8748C1.9549 11.0045 1.91352 10.1199 1.98024 9.25109C1.98955 9.12955 2.00144 9.008 2.01592 8.88697C2.01799 8.87158 2.01955 8.85569 2.02162 8.8403C2.02162 8.8403 2.02162 8.8403 2.02162 8.83979C2.03248 8.76799 2.04334 8.6967 2.05575 8.6249C2.09868 8.3772 2.15196 8.13103 2.21661 7.88794C2.28023 7.64741 2.3547 7.40996 2.43952 7.1761C2.47935 7.06533 2.52177 6.95558 2.56677 6.84685C2.56366 6.85403 2.56055 6.8607 2.55641 6.86891C2.56624 6.84788 2.57503 6.82583 2.58434 6.80429C2.61279 6.73967 2.64176 6.67607 2.67124 6.61248C2.87865 6.16938 3.12432 5.74423 3.40465 5.34267C3.47034 5.2483 3.53809 5.15496 3.60791 5.06368C3.60326 5.06932 3.60015 5.07291 3.59446 5.07957C3.61308 5.05752 3.63067 5.03393 3.64877 5.01136C3.6886 4.96162 3.72895 4.91239 3.76981 4.86315C3.92963 4.67237 4.09824 4.48826 4.27409 4.31133C4.44581 4.13901 4.62527 3.97336 4.81095 3.81591C4.89629 3.7436 4.98319 3.67385 5.07111 3.60462C5.06336 3.60975 5.05767 3.61436 5.04836 3.62103C5.06129 3.6118 5.0737 3.60205 5.08611 3.59282C5.08922 3.59026 5.0918 3.58821 5.0949 3.58564C5.10318 3.57898 5.11352 3.5718 5.1218 3.56616C5.12542 3.56359 5.12852 3.56103 5.13214 3.55846C5.188 3.51692 5.24489 3.47589 5.30179 3.43589C5.70315 3.15331 6.12882 2.90458 6.57259 2.6938C6.67448 2.64508 6.77792 2.59943 6.88188 2.5543C6.9005 2.54661 6.91964 2.53892 6.93826 2.53174C7.00447 2.50558 7.07066 2.47994 7.13738 2.45532C7.3722 2.36865 7.61012 2.29224 7.85166 2.22608C8.09578 2.15941 8.3425 2.103 8.59128 2.05735C8.71075 2.0353 8.8323 2.02248 8.95178 1.9994C8.73765 2.04043 8.94453 2.00094 8.99987 1.99427C9.07332 1.98607 9.14676 1.97837 9.22021 1.97222C9.48037 1.94914 9.74156 1.93837 10.0028 1.93786C10.3726 1.93888 10.7408 1.9635 11.108 2.00761C11.1142 2.00863 11.1205 2.00914 11.1267 2.01017C11.1691 2.01632 11.211 2.02299 11.2529 2.02966C11.3485 2.04504 11.4442 2.06248 11.5394 2.08146C11.7168 2.11633 11.8927 2.15684 12.0675 2.203C12.4187 2.29531 12.7636 2.40968 13.1004 2.54558C13.1086 2.54917 13.1174 2.55225 13.1262 2.55584C13.1536 2.56764 13.181 2.57943 13.2085 2.59123C13.2948 2.62918 13.3802 2.66867 13.465 2.70918C13.6238 2.7856 13.78 2.86663 13.9336 2.95227C14.2444 3.12562 14.5444 3.31794 14.8315 3.5282C14.862 3.55077 14.8925 3.57334 14.9225 3.5959C14.9277 3.6 14.9328 3.60411 14.938 3.6077C15.0068 3.66155 15.074 3.71642 15.1413 3.77232C15.2794 3.88771 15.4139 4.00721 15.5447 4.1308C15.7976 4.36979 16.0361 4.62365 16.2585 4.89136C16.2879 4.92726 16.3174 4.96316 16.3464 4.99906C16.3516 5.00572 16.3655 5.02316 16.3785 5.03957C16.3929 5.05803 16.41 5.0806 16.4172 5.08983C16.4452 5.12676 16.4726 5.16419 16.5 5.20163C16.606 5.34728 16.7074 5.49601 16.8041 5.64781C16.9919 5.94321 17.162 6.2499 17.312 6.5653C17.3498 6.64479 17.3865 6.72428 17.4217 6.8048C17.4227 6.80685 17.4238 6.8089 17.4243 6.81147C17.4424 6.8566 17.461 6.9007 17.4791 6.94583C17.5443 7.11046 17.6042 7.27713 17.6586 7.44535C17.7692 7.78537 17.8577 8.13257 17.9244 8.48387C17.9415 8.57259 17.9565 8.66183 17.971 8.75106C17.9777 8.79312 17.9829 8.83517 17.9896 8.87671C17.9544 8.66388 17.987 8.85876 17.9927 8.90646C18.0144 9.08852 18.0299 9.27161 18.0397 9.45469C18.0599 9.83113 18.0558 10.2091 18.0268 10.585C18.0201 10.6701 18.0123 10.7553 18.003 10.8404C17.9984 10.883 17.9937 10.925 17.9885 10.9676C17.9875 10.9773 17.986 10.9871 17.9849 10.9973C17.957 11.1758 17.927 11.3538 17.8898 11.5307C17.8148 11.8856 17.7165 12.2354 17.597 12.5774C17.5696 12.6554 17.5412 12.7328 17.5117 12.8098C17.4967 12.8482 17.4817 12.8867 17.4667 12.9246C17.4589 12.9436 17.4212 13.0339 17.417 13.0446C17.4134 13.0534 17.4098 13.0611 17.4082 13.0646C17.3891 13.1077 17.37 13.1503 17.3503 13.1929C17.3136 13.2723 17.2753 13.3513 17.236 13.4298C17.0767 13.7472 16.8977 14.055 16.7002 14.3504C16.6035 14.495 16.5021 14.637 16.3971 14.7755C16.3935 14.7806 16.3893 14.7858 16.3852 14.7909C16.3614 14.8206 16.3381 14.8499 16.3143 14.8796C16.2595 14.9468 16.2036 15.0135 16.1467 15.0796C15.9155 15.3468 15.6673 15.6002 15.4051 15.8371C15.2758 15.954 15.1433 16.0669 15.0073 16.1756C14.9794 16.1982 14.9509 16.2202 14.9225 16.2428C14.9158 16.2479 14.9091 16.253 14.9028 16.2576C14.8284 16.3135 14.7529 16.3679 14.6763 16.4212C14.3892 16.6218 14.0898 16.8049 13.78 16.9695L13.7794 16.969Z" fill="#AFB9CA"/>
<path d="M17.9389 14.7868C18.769 13.4642 19.2381 11.9359 19.3214 10.3824C19.4057 8.80696 19.0638 7.22739 18.3651 5.81295C17.6906 4.44723 16.6598 3.27947 15.4216 2.38917C14.1539 1.47732 12.6633 0.932673 11.1153 0.736251C10.7465 0.689582 10.3746 0.667017 10.0028 0.666504C7.79891 0.67112 5.67419 1.4527 3.98496 2.85073C2.37332 4.18465 1.2339 6.09912 0.844957 8.14539C0.643761 9.20596 0.671684 10.2681 0.671684 11.3399V15.593C0.671684 16.5582 0.661858 17.5239 0.671684 18.4885C0.671684 18.5039 0.671684 18.5193 0.671684 18.5347C0.671684 18.8783 0.965469 19.1701 1.31252 19.1701H8.71903C9.20935 19.1701 9.70018 19.1783 10.1905 19.1681C11.7649 19.1347 13.3248 18.7065 14.6866 17.9213C16.0071 17.1603 17.1315 16.0715 17.9384 14.7863L17.9389 14.7868ZM13.7794 16.969C13.6238 17.0515 13.466 17.1295 13.3057 17.2028C13.2628 17.2223 13.2198 17.2418 13.1764 17.2603C13.1702 17.2628 13.1572 17.2685 13.1428 17.2746C13.1195 17.2839 13.0812 17.2998 13.0678 17.3054C13.0181 17.3249 12.9685 17.3444 12.9188 17.3628C12.5842 17.489 12.2413 17.5946 11.8932 17.6782C11.7111 17.7223 11.5275 17.7603 11.3434 17.7921C11.2596 17.8064 11.1753 17.8193 11.091 17.8321C11.0387 17.8388 10.986 17.8449 10.9337 17.85C10.3348 17.9131 9.73173 17.8988 9.13073 17.8988H1.9549V11.8748C1.9549 11.0045 1.91352 10.1199 1.98024 9.25109C1.98955 9.12955 2.00144 9.008 2.01592 8.88697C2.01799 8.87158 2.01955 8.85569 2.02162 8.8403C2.02162 8.8403 2.02162 8.8403 2.02162 8.83979C2.03248 8.76799 2.04334 8.6967 2.05575 8.6249C2.09868 8.3772 2.15196 8.13103 2.21661 7.88794C2.28023 7.64741 2.3547 7.40996 2.43952 7.1761C2.47935 7.06533 2.52177 6.95558 2.56677 6.84685C2.56366 6.85403 2.56055 6.8607 2.55641 6.86891C2.56624 6.84788 2.57503 6.82583 2.58434 6.80429C2.61279 6.73967 2.64176 6.67607 2.67124 6.61248C2.87865 6.16938 3.12432 5.74423 3.40465 5.34267C3.47034 5.2483 3.53809 5.15496 3.60791 5.06368C3.60326 5.06932 3.60015 5.07291 3.59446 5.07957C3.61308 5.05752 3.63067 5.03393 3.64877 5.01136C3.6886 4.96162 3.72895 4.91239 3.76981 4.86315C3.92963 4.67237 4.09824 4.48826 4.27409 4.31133C4.44581 4.13901 4.62527 3.97336 4.81095 3.81591C4.89629 3.7436 4.98319 3.67385 5.07111 3.60462C5.06336 3.60975 5.05767 3.61436 5.04836 3.62103C5.06129 3.6118 5.0737 3.60205 5.08611 3.59282C5.08922 3.59026 5.0918 3.58821 5.0949 3.58564C5.10318 3.57898 5.11352 3.5718 5.1218 3.56616C5.12542 3.56359 5.12852 3.56103 5.13214 3.55846C5.188 3.51692 5.24489 3.47589 5.30179 3.43589C5.70315 3.15331 6.12882 2.90458 6.57259 2.6938C6.67448 2.64508 6.77792 2.59943 6.88188 2.5543C6.9005 2.54661 6.91964 2.53892 6.93826 2.53174C7.00447 2.50558 7.07066 2.47994 7.13738 2.45532C7.3722 2.36865 7.61012 2.29224 7.85166 2.22608C8.09578 2.15941 8.3425 2.103 8.59128 2.05735C8.71075 2.0353 8.8323 2.02248 8.95178 1.9994C8.73765 2.04043 8.94453 2.00094 8.99987 1.99427C9.07332 1.98607 9.14676 1.97837 9.22021 1.97222C9.48037 1.94914 9.74156 1.93837 10.0028 1.93786C10.3726 1.93888 10.7408 1.9635 11.108 2.00761C11.1142 2.00863 11.1205 2.00914 11.1267 2.01017C11.1691 2.01632 11.211 2.02299 11.2529 2.02966C11.3485 2.04504 11.4442 2.06248 11.5394 2.08146C11.7168 2.11633 11.8927 2.15684 12.0675 2.203C12.4187 2.29531 12.7636 2.40968 13.1004 2.54558C13.1086 2.54917 13.1174 2.55225 13.1262 2.55584C13.1536 2.56764 13.181 2.57943 13.2085 2.59123C13.2948 2.62918 13.3802 2.66867 13.465 2.70918C13.6238 2.7856 13.78 2.86663 13.9336 2.95227C14.2444 3.12562 14.5444 3.31794 14.8315 3.5282C14.862 3.55077 14.8925 3.57334 14.9225 3.5959C14.9277 3.6 14.9328 3.60411 14.938 3.6077C15.0068 3.66155 15.074 3.71642 15.1413 3.77232C15.2794 3.88771 15.4139 4.00721 15.5447 4.1308C15.7976 4.36979 16.0361 4.62365 16.2585 4.89136C16.2879 4.92726 16.3174 4.96316 16.3464 4.99906C16.3516 5.00572 16.3655 5.02316 16.3785 5.03957C16.3929 5.05803 16.41 5.0806 16.4172 5.08983C16.4452 5.12676 16.4726 5.16419 16.5 5.20163C16.606 5.34728 16.7074 5.49601 16.8041 5.64781C16.9919 5.94321 17.162 6.2499 17.312 6.5653C17.3498 6.64479 17.3865 6.72428 17.4217 6.8048C17.4227 6.80685 17.4238 6.8089 17.4243 6.81147C17.4424 6.8566 17.461 6.9007 17.4791 6.94583C17.5443 7.11046 17.6042 7.27713 17.6586 7.44535C17.7692 7.78537 17.8577 8.13257 17.9244 8.48387C17.9415 8.57259 17.9565 8.66183 17.971 8.75106C17.9777 8.79312 17.9829 8.83517 17.9896 8.87671C17.9544 8.66388 17.987 8.85876 17.9927 8.90646C18.0144 9.08852 18.0299 9.27161 18.0397 9.45469C18.0599 9.83113 18.0558 10.2091 18.0268 10.585C18.0201 10.6701 18.0123 10.7553 18.003 10.8404C17.9984 10.883 17.9937 10.925 17.9885 10.9676C17.9875 10.9773 17.986 10.9871 17.9849 10.9973C17.957 11.1758 17.927 11.3538 17.8898 11.5307C17.8148 11.8856 17.7165 12.2354 17.597 12.5774C17.5696 12.6554 17.5412 12.7328 17.5117 12.8098C17.4967 12.8482 17.4817 12.8867 17.4667 12.9246C17.4589 12.9436 17.4212 13.0339 17.417 13.0446C17.4134 13.0534 17.4098 13.0611 17.4082 13.0646C17.3891 13.1077 17.37 13.1503 17.3503 13.1929C17.3136 13.2723 17.2753 13.3513 17.236 13.4298C17.0767 13.7472 16.8977 14.055 16.7002 14.3504C16.6035 14.495 16.5021 14.637 16.3971 14.7755C16.3935 14.7806 16.3893 14.7858 16.3852 14.7909C16.3614 14.8206 16.3381 14.8499 16.3143 14.8796C16.2595 14.9468 16.2036 15.0135 16.1467 15.0796C15.9155 15.3468 15.6673 15.6002 15.4051 15.8371C15.2758 15.954 15.1433 16.0669 15.0073 16.1756C14.9794 16.1982 14.9509 16.2202 14.9225 16.2428C14.9158 16.2479 14.9091 16.253 14.9028 16.2576C14.8284 16.3135 14.7529 16.3679 14.6763 16.4212C14.3892 16.6218 14.0898 16.8049 13.78 16.9695L13.7794 16.969Z" stroke="#AFB9CA" stroke-width="0.958849" stroke-linejoin="round" mask="url(#path-1-outside-1_4558_5)"/>
<path d="M8.97473 10.1581C8.83975 9.59108 9.19393 9.02292 9.7658 8.88908C10.3377 8.75525 10.9107 9.10643 11.0456 9.67347C11.1806 10.2405 10.8264 10.8087 10.2546 10.9425C9.68271 11.0764 9.1097 10.7252 8.97473 10.1581Z" fill="#AFB9CA"/>
<path d="M13.741 10.8926C13.1982 10.6696 12.9404 10.0525 13.1652 9.51427C13.3901 8.97599 14.0124 8.72038 14.5553 8.94334C15.0981 9.1663 15.3559 9.7834 15.1311 10.3217C14.9062 10.8599 14.2839 11.1156 13.741 10.8926Z" fill="#AFB9CA"/>
<path d="M5.84429 10.9731C5.25671 10.9731 4.78039 10.5008 4.78039 9.91821C4.78039 9.33559 5.25671 8.86328 5.84429 8.86328C6.43187 8.86328 6.9082 9.33559 6.9082 9.91821C6.9082 10.5008 6.43187 10.9731 5.84429 10.9731Z" fill="#AFB9CA"/>
</svg>
