<svg width="21" height="20" viewBox="0 0 21 20" fill="none" xmlns="http://www.w3.org/2000/svg">
<path d="M3.00159 19.9998C2.16825 19.9998 1.45992 19.7081 0.876587 19.1248C0.293254 18.5414 0.00158691 17.8331 0.00158691 16.9998V2.99976C0.00158691 2.16642 0.293254 1.45809 0.876587 0.874756C1.45992 0.291423 2.16825 -0.000244141 3.00159 -0.000244141H17.0016C17.8349 -0.000244141 18.5433 0.291423 19.1266 0.874756C19.7099 1.45809 20.0016 2.16642 20.0016 2.99976V16.9998C20.0016 17.8331 19.7099 18.5414 19.1266 19.1248C18.5433 19.7081 17.8349 19.9998 17.0016 19.9998H3.00159ZM3.00159 17.9998H17.0016C17.2849 17.9998 17.5223 17.9038 17.7136 17.7118C17.9056 17.5204 18.0016 17.2831 18.0016 16.9998V2.99976C18.0016 2.71642 17.9056 2.47876 17.7136 2.28676C17.5223 2.09542 17.2849 1.99976 17.0016 1.99976H3.00159C2.71825 1.99976 2.48059 2.09542 2.28859 2.28676C2.09725 2.47876 2.00159 2.71642 2.00159 2.99976V16.9998C2.00159 17.2831 2.09725 17.5204 2.28859 17.7118C2.48059 17.9038 2.71825 17.9998 3.00159 17.9998ZM4.00159 15.9998L8.00159 11.9998L9.80159 13.7748L12.0016 10.9998L16.0016 15.9998H4.00159ZM6.00159 7.99976C5.45159 7.99976 4.98092 7.80376 4.58959 7.41176C4.19759 7.02042 4.00159 6.54976 4.00159 5.99976C4.00159 5.44976 4.19759 4.97909 4.58959 4.58776C4.98092 4.19576 5.45159 3.99976 6.00159 3.99976C6.55159 3.99976 7.02259 4.19576 7.41459 4.58776C7.80592 4.97909 8.00159 5.44976 8.00159 5.99976C8.00159 6.54976 7.80592 7.02042 7.41459 7.41176C7.02259 7.80376 6.55159 7.99976 6.00159 7.99976Z" fill="#919EB6"/>
</svg>
