<svg width="22" height="20" viewBox="0 0 22 20" fill="none" xmlns="http://www.w3.org/2000/svg">
<path d="M11.0004 2.83001C12.117 1.67987 13.6718 1.02099 15.3436 1.02081L11.0004 2.83001ZM11.0004 2.83001C9.88363 1.67943 8.3288 1.02081 6.65639 1.02081C3.37573 1.02081 0.6875 3.59788 0.6875 6.78992C0.6875 9.67318 2.45794 12.2713 4.53821 14.3362C6.62631 16.4088 9.07775 17.9952 10.5468 18.8564C10.687 18.9388 10.8439 18.9791 11 18.9791C11.156 18.9791 11.3128 18.9388 11.4529 18.8566L11.0004 2.83001ZM17.4619 14.3364C15.3739 16.4091 12.9224 17.9953 11.4532 18.8564L17.4619 14.3364ZM17.4619 14.3364C19.5422 12.2715 21.3125 9.67333 21.3125 6.78992M17.4619 14.3364L21.3125 6.78992M21.3125 6.78992C21.3125 3.59845 18.625 1.02116 15.3443 1.02081L21.3125 6.78992ZM16.8694 12.4436L17.1011 12.6533L16.8694 12.4436C15.4124 14.0532 13.3919 15.6617 11.0003 17.1109C8.60878 15.6617 6.58855 14.0532 5.13121 12.4435C3.32574 10.4494 2.44873 8.5482 2.44873 6.78992C2.44873 4.56856 4.32581 2.74191 6.65639 2.74191C8.13982 2.74191 9.48128 3.47103 10.2519 4.68637L10.2519 4.6864C10.4143 4.94233 10.6989 5.09377 11.0003 5.09377C11.3014 5.09377 11.5866 4.94266 11.7488 4.68632C12.5191 3.47105 13.8608 2.74191 15.3443 2.74191C17.6749 2.74191 19.5519 4.56856 19.5519 6.78992C19.5519 8.54818 18.6746 10.4493 16.8694 12.4436ZM10.5158 4.51902C10.6191 4.68192 10.8027 4.78127 11.0003 4.78127C11.198 4.78127 11.3819 4.68192 11.4849 4.51902H10.5158Z" fill="#AFB9CA" stroke="#AFB9CA" stroke-width="0.625"/>
</svg>
