<svg width="24" height="24" viewBox="0 0 24 24" fill="none" xmlns="http://www.w3.org/2000/svg">
<path d="M20.5713 15.2006L18.7045 12.312V9.33348C18.7045 6.40805 16.5136 3.98274 13.6802 3.6036C13.6402 2.71255 12.9015 2 11.997 2C11.0925 2 10.3538 2.71255 10.3139 3.6036C7.48196 3.98421 5.29103 6.40805 5.29103 9.33348V12.312L3.42578 15.2006C2.89434 16.0223 2.85881 17.0254 3.32808 17.8826C3.79735 18.7397 4.66336 19.2531 5.64484 19.2531H8.09482C8.66772 20.8803 10.2103 22 12 22C13.7897 22 15.3308 20.8803 15.9052 19.2531H18.3552C19.3352 19.2531 20.2012 18.7412 20.6719 17.8826C21.1412 17.0254 21.1057 16.0223 20.5742 15.2006H20.5713ZM11.9985 20.3035C11.168 20.3035 10.4293 19.8948 9.9882 19.2531H14.0103C13.5692 19.8948 12.829 20.3035 12 20.3035H11.9985ZM19.1738 17.0697C19.0939 17.2158 18.854 17.5551 18.3522 17.5551H5.64336C5.14152 17.5551 4.9017 17.2158 4.82176 17.0697C4.74182 16.9237 4.5849 16.5386 4.85581 16.1182L6.99344 12.8092V9.33201C6.99344 7.07929 8.83204 5.24703 11.0925 5.24703H12.9015C15.162 5.24703 17.0006 7.07929 17.0006 9.33201V12.8092L19.1383 16.1167C19.4092 16.5371 19.2523 16.9222 19.1723 17.0682L19.1738 17.0697Z" fill="#AFB9CA"/>
</svg>
